<svg width="20" height="23" viewBox="0 0 20 23" fill="none" xmlns="http://www.w3.org/2000/svg">
<path d="M10 11.4286C13.1562 11.4286 15.7143 8.87054 15.7143 5.71429C15.7143 2.55804 13.1562 0 10 0C6.84375 0 4.28571 2.55804 4.28571 5.71429C4.28571 8.87054 6.84375 11.4286 10 11.4286ZM14 12.8571H13.2545C12.2634 13.3125 11.1607 13.5714 10 13.5714C8.83929 13.5714 7.74107 13.3125 6.74554 12.8571H6C2.6875 12.8571 0 15.5446 0 18.8571V20.7143C0 21.8973 0.959821 22.8571 2.14286 22.8571H17.8571C19.0402 22.8571 20 21.8973 20 20.7143V18.8571C20 15.5446 17.3125 12.8571 14 12.8571Z" fill="black"/>
</svg>
