<svg width="20" height="23" viewBox="0 0 20 23" fill="none" xmlns="http://www.w3.org/2000/svg">
<path d="M17.7778 12.8733V8.88889C17.7778 5.31444 15.35 2.30333 12.0611 1.39778C11.7356 0.577778 10.94 0 10 0C9.06 0 8.26445 0.577778 7.93889 1.39778C4.65 2.30444 2.22222 5.31444 2.22222 8.88889V12.8733L0.325556 14.77C0.116667 14.9778 0 15.26 0 15.5556V17.7778C0 18.3922 0.496667 18.8889 1.11111 18.8889H18.8889C19.5033 18.8889 20 18.3922 20 17.7778V15.5556C20 15.26 19.8833 14.9778 19.6744 14.77L17.7778 12.8733ZM17.7778 16.6667H2.22222V16.0156L4.11889 14.1189C4.32778 13.9111 4.44444 13.6289 4.44444 13.3333V8.88889C4.44444 5.82556 6.93667 3.33333 10 3.33333C13.0633 3.33333 15.5556 5.82556 15.5556 8.88889V13.3333C15.5556 13.6289 15.6722 13.9111 15.8811 14.1189L17.7778 16.0156V16.6667ZM10 22.2222C11.4567 22.2222 12.6744 21.2956 13.1311 20H6.86889C7.32556 21.2956 8.54333 22.2222 10 22.2222Z" fill="black"/>
</svg>
