<svg width="28" height="28" viewBox="0 0 28 28" fill="none" xmlns="http://www.w3.org/2000/svg">
<path d="M12.2544 0L10.5087 4.15461C10.1596 4.25935 9.84539 4.43392 9.53117 4.60848L5.37656 2.86284L2.86284 5.37656L4.60848 9.53117C4.43391 9.8803 4.29426 10.1596 4.15461 10.5087L0 12.2544V15.7456L4.15461 17.4913C4.29426 17.8404 4.43391 18.1197 4.60848 18.4688L2.86284 22.6234L5.37656 25.1372L9.53117 23.3915C9.84539 23.5312 10.1596 23.7057 10.5087 23.8454L12.2544 28H15.7456L17.4913 23.8454C17.8055 23.7057 18.1546 23.5661 18.4688 23.3915L22.6234 25.1372L25.1372 22.6234L23.3915 18.4688C23.5312 18.1546 23.7057 17.8055 23.8454 17.4913L28 15.7456V12.2544L23.8454 10.5087C23.7407 10.1945 23.5661 9.84539 23.3915 9.53117L25.1372 5.37656L22.6234 2.86284L18.4688 4.60848C18.1546 4.46883 17.8055 4.29426 17.4913 4.15461L15.7456 0L12.2544 0ZM14 8.72818C16.8978 8.72818 19.2369 11.0673 19.2369 13.9651C19.2369 16.8628 16.8978 19.202 14 19.202C11.1022 19.202 8.76309 16.8628 8.76309 13.9651C8.76309 11.0673 11.1022 8.72818 14 8.72818Z" fill="white"/>
</svg>
