<svg width="13" height="14" viewBox="0 0 13 14" fill="none" xmlns="http://www.w3.org/2000/svg">
<path d="M6.49716 4.74275C6.02411 4.74275 5.56167 4.88303 5.16834 5.14585C4.77501 5.40866 4.46844 5.78221 4.28741 6.21926C4.10638 6.65631 4.05902 7.13722 4.15131 7.60119C4.24359 8.06516 4.47139 8.49134 4.80589 8.82584C5.1404 9.16034 5.56658 9.38814 6.03054 9.48043C6.49451 9.57272 6.97543 9.52535 7.41247 9.34432C7.84952 9.16329 8.22307 8.85672 8.48589 8.46339C8.7487 8.07006 8.88898 7.60763 8.88898 7.13457C8.88826 6.50044 8.63604 5.89249 8.18764 5.44409C7.73924 4.9957 7.13129 4.74347 6.49716 4.74275ZM6.49716 8.65663C6.19613 8.65663 5.90185 8.56737 5.65155 8.40012C5.40125 8.23287 5.20616 7.99516 5.09096 7.71704C4.97576 7.43892 4.94562 7.13288 5.00435 6.83763C5.06307 6.54238 5.20804 6.27117 5.4209 6.05831C5.63377 5.84544 5.90497 5.70048 6.20022 5.64175C6.49548 5.58302 6.80151 5.61316 7.07963 5.72836C7.35775 5.84357 7.59547 6.03865 7.76272 6.28895C7.92996 6.53926 8.01923 6.83353 8.01923 7.13457C8.01878 7.53811 7.85827 7.92499 7.57293 8.21033C7.28758 8.49568 6.9007 8.65618 6.49716 8.65663Z" fill="black"/>
<path d="M12.4644 8.93711L11.6009 8.22627C11.7539 7.50652 11.7539 6.76262 11.6009 6.04287L12.4644 5.33204C12.5639 5.25044 12.6312 5.13605 12.6542 5.00936C12.6771 4.88267 12.6542 4.75195 12.5895 4.64062L11.7032 3.10542C11.6391 2.99372 11.5373 2.90849 11.4161 2.86501C11.2949 2.82153 11.1622 2.82264 11.0417 2.86814L9.99361 3.26081C9.44763 2.76752 8.80351 2.39524 8.10353 2.1684L7.91963 1.06569C7.89881 0.938608 7.83341 0.823094 7.73516 0.739853C7.6369 0.656612 7.51221 0.611087 7.38343 0.611437H5.61071C5.48194 0.611091 5.35726 0.656614 5.259 0.739849C5.16074 0.823084 5.09534 0.938589 5.07451 1.06566L4.89072 2.1684C4.19074 2.39523 3.54662 2.76751 3.00064 3.26081L1.95246 2.86809C1.832 2.82262 1.69928 2.82153 1.57808 2.86501C1.45689 2.90849 1.35514 2.99371 1.29107 3.1054L0.404707 4.6407C0.340063 4.75204 0.317171 4.88277 0.340129 5.00945C0.363088 5.13614 0.430399 5.25052 0.530006 5.3321L1.39342 6.04287C1.24035 6.76262 1.24035 7.50652 1.39342 8.22627L0.529924 8.93711C0.430333 9.0187 0.363041 9.13309 0.340098 9.25978C0.317154 9.38647 0.340058 9.51719 0.404707 9.62853L1.29109 11.1637C1.35517 11.2754 1.45694 11.3606 1.57815 11.4041C1.69936 11.4476 1.8321 11.4465 1.95257 11.401L3.00067 11.0083C3.54665 11.5016 4.19076 11.8739 4.89075 12.1007L5.07454 13.2035C5.09536 13.3305 5.16076 13.446 5.25901 13.5293C5.35726 13.6125 5.48194 13.658 5.61071 13.6577H7.38343C7.5122 13.6581 7.63689 13.6125 7.73515 13.5293C7.83341 13.4461 7.89881 13.3306 7.91963 13.2035L8.10345 12.1007C8.80343 11.8739 9.44755 11.5016 9.99353 11.0083L11.0417 11.4011C11.1621 11.4465 11.2949 11.4476 11.4161 11.4041C11.5373 11.3606 11.639 11.2754 11.7031 11.1638L12.5894 9.62845C12.654 9.51714 12.677 9.38645 12.6541 9.25977C12.6312 9.1331 12.5639 9.01872 12.4644 8.93711ZM11.0881 10.4896L9.78049 9.99973L9.58249 10.1991C9.03771 10.7482 8.35631 11.142 7.60856 11.3399L7.33676 11.4115L7.10723 12.788H5.88713L5.65768 11.4115L5.38588 11.3399C4.63814 11.142 3.95673 10.7482 3.41195 10.1991L3.21395 9.99973L1.90614 10.4896L1.2962 9.43295L2.37331 8.54623L2.29992 8.27517C2.09811 7.52816 2.09811 6.74098 2.29992 5.99398L2.37331 5.72294L1.2962 4.83623L1.90628 3.77953L3.21387 4.26942L3.41187 4.07009C3.95665 3.52099 4.63806 3.12718 5.3858 2.92927L5.6576 2.85762L5.88702 1.48119H7.10723L7.33668 2.85762L7.60848 2.92927C8.35622 3.12718 9.03763 3.52099 9.58241 4.07009L9.78041 4.26942L11.088 3.77953L11.6981 4.8362L10.621 5.72294L10.6944 5.99398C10.8962 6.74098 10.8962 7.52816 10.6944 8.27517L10.621 8.54623L11.6981 9.43292L11.0881 10.4896Z" fill="black"/>
</svg>
