<svg width="13" height="16" viewBox="0 0 13 16" fill="none" xmlns="http://www.w3.org/2000/svg">
<path d="M6.76887 3.80017C6.31986 3.80017 5.88094 3.92643 5.50761 4.16298C5.13427 4.39953 4.84329 4.73575 4.67147 5.12912C4.49964 5.52249 4.45468 5.95534 4.54228 6.37294C4.62988 6.79054 4.84609 7.17413 5.16359 7.4752C5.48108 7.77628 5.88559 7.98131 6.32597 8.06438C6.76635 8.14744 7.22281 8.10481 7.63764 7.94187C8.05247 7.77893 8.40702 7.503 8.65648 7.14898C8.90593 6.79496 9.03908 6.37874 9.03908 5.95296C9.03839 5.3822 8.79899 4.83501 8.37339 4.43142C7.94779 4.02784 7.37075 3.80082 6.76887 3.80017ZM6.76887 7.02935C6.54437 7.02935 6.3249 6.96622 6.13824 6.84794C5.95157 6.72967 5.80608 6.56156 5.72017 6.36487C5.63425 6.16819 5.61178 5.95176 5.65557 5.74296C5.69937 5.53416 5.80748 5.34237 5.96623 5.19183C6.12497 5.0413 6.32723 4.93878 6.54742 4.89725C6.76761 4.85571 6.99584 4.87703 7.20325 4.9585C7.41067 5.03997 7.58795 5.17793 7.71267 5.35494C7.8374 5.53196 7.90397 5.74007 7.90397 5.95296C7.90363 6.23833 7.78392 6.51193 7.57112 6.71372C7.35833 6.91551 7.06981 7.02902 6.76887 7.02935Z" fill="black"/>
<path d="M11.1313 1.81296C10.0527 0.7904 8.61285 0.182958 7.08971 0.107871C5.56658 0.0327835 4.06811 0.495373 2.8835 1.40636C1.69889 2.31735 0.91212 3.61215 0.675042 5.04087C0.437964 6.46959 0.767383 7.93094 1.59972 9.14289L5.88854 15.3864C5.98398 15.5253 6.11448 15.6395 6.2682 15.7185C6.42192 15.7975 6.59401 15.8389 6.76886 15.8389C6.94372 15.8389 7.11581 15.7975 7.26953 15.7185C7.42325 15.6395 7.55375 15.5253 7.64919 15.3864L11.9381 9.14289C12.7105 8.01863 13.0518 6.6768 12.9049 5.3423C12.758 4.00779 12.1318 2.76173 11.1313 1.81296ZM10.9871 8.55535L6.76888 14.6958L2.55065 8.55535C1.25947 6.67573 1.5364 4.16034 3.20912 2.57407C3.67659 2.13077 4.23156 1.77912 4.84235 1.5392C5.45313 1.29929 6.10777 1.17581 6.76888 1.17581C7.42999 1.17581 8.08463 1.29929 8.69542 1.5392C9.3062 1.77912 9.86117 2.13077 10.3286 2.57407C12.0014 4.16034 12.2783 6.67573 10.9871 8.55535Z" fill="black"/>
</svg>
