<svg width="245" height="21" viewBox="0 0 245 21" fill="none" xmlns="http://www.w3.org/2000/svg">
<path d="M4.935 16V3.106H0.588V1.3H11.487V3.106H7.161V16H4.935ZM12.3787 16V5.584H14.3737L14.5627 7.558C14.9267 6.872 15.4307 6.333 16.0747 5.941C16.7327 5.535 17.5237 5.332 18.4477 5.332V7.663H17.8387C17.2227 7.663 16.6697 7.768 16.1797 7.978C15.7037 8.174 15.3187 8.517 15.0247 9.007C14.7447 9.483 14.6047 10.148 14.6047 11.002V16H12.3787ZM23.8842 16.252C23.0022 16.252 22.2742 16.105 21.7002 15.811C21.1262 15.517 20.6992 15.132 20.4192 14.656C20.1392 14.166 19.9992 13.634 19.9992 13.06C19.9992 12.052 20.3912 11.254 21.1752 10.666C21.9592 10.078 23.0792 9.784 24.5352 9.784H27.2652V9.595C27.2652 8.783 27.0412 8.174 26.5932 7.768C26.1592 7.362 25.5922 7.159 24.8922 7.159C24.2762 7.159 23.7372 7.313 23.2752 7.621C22.8272 7.915 22.5542 8.356 22.4562 8.944H20.2302C20.3002 8.188 20.5522 7.544 20.9862 7.012C21.4342 6.466 21.9942 6.053 22.6662 5.773C23.3522 5.479 24.1012 5.332 24.9132 5.332C26.3692 5.332 27.4962 5.717 28.2942 6.487C29.0922 7.243 29.4912 8.279 29.4912 9.595V16H27.5592L27.3702 14.215C27.0762 14.789 26.6492 15.272 26.0892 15.664C25.5292 16.056 24.7942 16.252 23.8842 16.252ZM24.3252 14.446C24.9272 14.446 25.4312 14.306 25.8372 14.026C26.2572 13.732 26.5792 13.347 26.8032 12.871C27.0412 12.395 27.1882 11.87 27.2442 11.296H24.7662C23.8842 11.296 23.2542 11.45 22.8762 11.758C22.5122 12.066 22.3302 12.451 22.3302 12.913C22.3302 13.389 22.5052 13.767 22.8552 14.047C23.2192 14.313 23.7092 14.446 24.3252 14.446ZM37.0217 16.252C35.9997 16.252 35.0827 16.021 34.2707 15.559C33.4727 15.097 32.8427 14.46 32.3807 13.648C31.9327 12.822 31.7087 11.87 31.7087 10.792C31.7087 9.714 31.9327 8.769 32.3807 7.957C32.8427 7.131 33.4727 6.487 34.2707 6.025C35.0827 5.563 35.9997 5.332 37.0217 5.332C38.3097 5.332 39.3877 5.668 40.2557 6.34C41.1377 7.012 41.7047 7.922 41.9567 9.07H39.6257C39.4857 8.496 39.1777 8.048 38.7017 7.726C38.2257 7.404 37.6657 7.243 37.0217 7.243C36.4757 7.243 35.9717 7.383 35.5097 7.663C35.0477 7.929 34.6767 8.328 34.3967 8.86C34.1167 9.378 33.9767 10.022 33.9767 10.792C33.9767 11.562 34.1167 12.213 34.3967 12.745C34.6767 13.263 35.0477 13.662 35.5097 13.942C35.9717 14.222 36.4757 14.362 37.0217 14.362C37.6657 14.362 38.2257 14.201 38.7017 13.879C39.1777 13.557 39.4857 13.102 39.6257 12.514H41.9567C41.7187 13.634 41.1587 14.537 40.2767 15.223C39.3947 15.909 38.3097 16.252 37.0217 16.252ZM44.3709 16V0.879999H46.5969V9.889L50.5869 5.584H53.2539L48.8229 10.309L53.9049 16H51.0909L46.5969 10.666V16H44.3709Z" fill="black"/>
<path d="M63.9237 16L60.0387 1.3H62.9157L65.5617 12.997L68.6697 1.3H71.6307L74.6547 12.997L77.3007 1.3H80.1987L76.2087 16H73.0167L70.0977 5.101L67.0947 16H63.9237ZM82.0838 16V0.879999H84.7718V7.18C85.1218 6.606 85.5908 6.158 86.1788 5.836C86.7808 5.5 87.4668 5.332 88.2368 5.332C89.5248 5.332 90.5188 5.738 91.2188 6.55C91.9327 7.362 92.2897 8.552 92.2897 10.12V16H89.6228V10.372C89.6228 9.476 89.4408 8.79 89.0768 8.314C88.7268 7.838 88.1668 7.6 87.3968 7.6C86.6408 7.6 86.0108 7.866 85.5068 8.398C85.0168 8.93 84.7718 9.672 84.7718 10.624V16H82.0838ZM98.4511 16.252C97.5551 16.252 96.8201 16.112 96.2461 15.832C95.6721 15.538 95.2451 15.153 94.9651 14.677C94.6851 14.201 94.5451 13.676 94.5451 13.102C94.5451 12.136 94.9231 11.352 95.6791 10.75C96.4351 10.148 97.5691 9.847 99.0811 9.847H101.727V9.595C101.727 8.881 101.524 8.356 101.118 8.02C100.712 7.684 100.208 7.516 99.6061 7.516C99.0601 7.516 98.5841 7.649 98.1781 7.915C97.7721 8.167 97.5201 8.545 97.4221 9.049H94.7971C94.8671 8.293 95.1191 7.635 95.5531 7.075C96.0011 6.515 96.5751 6.088 97.2751 5.794C97.9751 5.486 98.7591 5.332 99.6271 5.332C101.111 5.332 102.28 5.703 103.134 6.445C103.988 7.187 104.415 8.237 104.415 9.595V16H102.126L101.874 14.32C101.566 14.88 101.132 15.342 100.572 15.706C100.026 16.07 99.3191 16.252 98.4511 16.252ZM99.0601 14.152C99.8301 14.152 100.425 13.9 100.845 13.396C101.279 12.892 101.552 12.269 101.664 11.527H99.3751C98.6611 11.527 98.1501 11.66 97.8421 11.926C97.5341 12.178 97.3801 12.493 97.3801 12.871C97.3801 13.277 97.5341 13.592 97.8421 13.816C98.1501 14.04 98.5561 14.152 99.0601 14.152ZM111.478 16C110.386 16 109.511 15.734 108.853 15.202C108.195 14.67 107.866 13.725 107.866 12.367V7.831H106.081V5.584H107.866L108.181 2.791H110.554V5.584H113.368V7.831H110.554V12.388C110.554 12.892 110.659 13.242 110.869 13.438C111.093 13.62 111.471 13.711 112.003 13.711H113.305V16H111.478ZM115.172 6.466L116.327 1.3H119.162L117.02 6.466H115.172ZM124.451 16.252C123.527 16.252 122.715 16.105 122.015 15.811C121.315 15.503 120.755 15.083 120.335 14.551C119.915 14.019 119.663 13.403 119.579 12.703H122.288C122.372 13.109 122.596 13.459 122.96 13.753C123.338 14.033 123.821 14.173 124.409 14.173C124.997 14.173 125.424 14.054 125.69 13.816C125.97 13.578 126.11 13.305 126.11 12.997C126.11 12.549 125.914 12.248 125.522 12.094C125.13 11.926 124.584 11.765 123.884 11.611C123.436 11.513 122.981 11.394 122.519 11.254C122.057 11.114 121.63 10.939 121.238 10.729C120.86 10.505 120.552 10.225 120.314 9.889C120.076 9.539 119.957 9.112 119.957 8.608C119.957 7.684 120.321 6.907 121.049 6.277C121.791 5.647 122.827 5.332 124.157 5.332C125.389 5.332 126.369 5.619 127.097 6.193C127.839 6.767 128.28 7.558 128.42 8.566H125.879C125.725 7.796 125.144 7.411 124.136 7.411C123.632 7.411 123.24 7.509 122.96 7.705C122.694 7.901 122.561 8.146 122.561 8.44C122.561 8.748 122.764 8.993 123.17 9.175C123.576 9.357 124.115 9.525 124.787 9.679C125.515 9.847 126.18 10.036 126.782 10.246C127.398 10.442 127.888 10.743 128.252 11.149C128.616 11.541 128.798 12.108 128.798 12.85C128.812 13.494 128.644 14.075 128.294 14.593C127.944 15.111 127.44 15.517 126.782 15.811C126.124 16.105 125.347 16.252 124.451 16.252ZM136.246 16V1.3H138.934V7.411H145.528V1.3H148.216V16H145.528V9.595H138.934V16H136.246ZM154.602 16.252C153.706 16.252 152.971 16.112 152.397 15.832C151.823 15.538 151.396 15.153 151.116 14.677C150.836 14.201 150.696 13.676 150.696 13.102C150.696 12.136 151.074 11.352 151.83 10.75C152.586 10.148 153.72 9.847 155.232 9.847H157.878V9.595C157.878 8.881 157.675 8.356 157.269 8.02C156.863 7.684 156.359 7.516 155.757 7.516C155.211 7.516 154.735 7.649 154.329 7.915C153.923 8.167 153.671 8.545 153.573 9.049H150.948C151.018 8.293 151.27 7.635 151.704 7.075C152.152 6.515 152.726 6.088 153.426 5.794C154.126 5.486 154.91 5.332 155.778 5.332C157.262 5.332 158.431 5.703 159.285 6.445C160.139 7.187 160.566 8.237 160.566 9.595V16H158.277L158.025 14.32C157.717 14.88 157.283 15.342 156.723 15.706C156.177 16.07 155.47 16.252 154.602 16.252ZM155.211 14.152C155.981 14.152 156.576 13.9 156.996 13.396C157.43 12.892 157.703 12.269 157.815 11.527H155.526C154.812 11.527 154.301 11.66 153.993 11.926C153.685 12.178 153.531 12.493 153.531 12.871C153.531 13.277 153.685 13.592 153.993 13.816C154.301 14.04 154.707 14.152 155.211 14.152ZM163.131 20.62V5.584H165.525L165.819 7.075C166.155 6.613 166.596 6.207 167.142 5.857C167.702 5.507 168.423 5.332 169.305 5.332C170.285 5.332 171.16 5.57 171.93 6.046C172.7 6.522 173.309 7.173 173.757 7.999C174.205 8.825 174.429 9.763 174.429 10.813C174.429 11.863 174.205 12.801 173.757 13.627C173.309 14.439 172.7 15.083 171.93 15.559C171.16 16.021 170.285 16.252 169.305 16.252C168.521 16.252 167.835 16.105 167.247 15.811C166.659 15.517 166.183 15.104 165.819 14.572V20.62H163.131ZM168.738 13.9C169.592 13.9 170.299 13.613 170.859 13.039C171.419 12.465 171.699 11.723 171.699 10.813C171.699 9.903 171.419 9.154 170.859 8.566C170.299 7.978 169.592 7.684 168.738 7.684C167.87 7.684 167.156 7.978 166.596 8.566C166.05 9.14 165.777 9.882 165.777 10.792C165.777 11.702 166.05 12.451 166.596 13.039C167.156 13.613 167.87 13.9 168.738 13.9ZM176.83 20.62V5.584H179.224L179.518 7.075C179.854 6.613 180.295 6.207 180.841 5.857C181.401 5.507 182.122 5.332 183.004 5.332C183.984 5.332 184.859 5.57 185.629 6.046C186.399 6.522 187.008 7.173 187.456 7.999C187.904 8.825 188.128 9.763 188.128 10.813C188.128 11.863 187.904 12.801 187.456 13.627C187.008 14.439 186.399 15.083 185.629 15.559C184.859 16.021 183.984 16.252 183.004 16.252C182.22 16.252 181.534 16.105 180.946 15.811C180.358 15.517 179.882 15.104 179.518 14.572V20.62H176.83ZM182.437 13.9C183.291 13.9 183.998 13.613 184.558 13.039C185.118 12.465 185.398 11.723 185.398 10.813C185.398 9.903 185.118 9.154 184.558 8.566C183.998 7.978 183.291 7.684 182.437 7.684C181.569 7.684 180.855 7.978 180.295 8.566C179.749 9.14 179.476 9.882 179.476 10.792C179.476 11.702 179.749 12.451 180.295 13.039C180.855 13.613 181.569 13.9 182.437 13.9ZM195.59 16.252C194.54 16.252 193.609 16.028 192.797 15.58C191.985 15.132 191.348 14.502 190.886 13.69C190.424 12.878 190.193 11.94 190.193 10.876C190.193 9.798 190.417 8.839 190.865 7.999C191.327 7.159 191.957 6.508 192.755 6.046C193.567 5.57 194.519 5.332 195.611 5.332C196.633 5.332 197.536 5.556 198.32 6.004C199.104 6.452 199.713 7.068 200.147 7.852C200.595 8.622 200.819 9.483 200.819 10.435C200.819 10.589 200.812 10.75 200.798 10.918C200.798 11.086 200.791 11.261 200.777 11.443H192.86C192.916 12.255 193.196 12.892 193.7 13.354C194.218 13.816 194.841 14.047 195.569 14.047C196.115 14.047 196.57 13.928 196.934 13.69C197.312 13.438 197.592 13.116 197.774 12.724H200.504C200.308 13.382 199.979 13.984 199.517 14.53C199.069 15.062 198.509 15.482 197.837 15.79C197.179 16.098 196.43 16.252 195.59 16.252ZM195.611 7.516C194.953 7.516 194.372 7.705 193.868 8.083C193.364 8.447 193.042 9.007 192.902 9.763H198.089C198.047 9.077 197.795 8.531 197.333 8.125C196.871 7.719 196.297 7.516 195.611 7.516ZM203.08 16V5.584H205.453L205.663 7.348C205.985 6.732 206.447 6.242 207.049 5.878C207.665 5.514 208.386 5.332 209.212 5.332C210.5 5.332 211.501 5.738 212.215 6.55C212.929 7.362 213.286 8.552 213.286 10.12V16H210.598V10.372C210.598 9.476 210.416 8.79 210.052 8.314C209.688 7.838 209.121 7.6 208.351 7.6C207.595 7.6 206.972 7.866 206.482 8.398C206.006 8.93 205.768 9.672 205.768 10.624V16H203.08ZM217.305 3.967C216.815 3.967 216.409 3.82 216.087 3.526C215.779 3.232 215.625 2.861 215.625 2.413C215.625 1.965 215.779 1.601 216.087 1.321C216.409 1.027 216.815 0.879999 217.305 0.879999C217.795 0.879999 218.194 1.027 218.502 1.321C218.824 1.601 218.985 1.965 218.985 2.413C218.985 2.861 218.824 3.232 218.502 3.526C218.194 3.82 217.795 3.967 217.305 3.967ZM215.961 16V5.584H218.649V16H215.961ZM221.455 16V5.584H223.828L224.038 7.348C224.36 6.732 224.822 6.242 225.424 5.878C226.04 5.514 226.761 5.332 227.587 5.332C228.875 5.332 229.876 5.738 230.59 6.55C231.304 7.362 231.661 8.552 231.661 10.12V16H228.973V10.372C228.973 9.476 228.791 8.79 228.427 8.314C228.063 7.838 227.496 7.6 226.726 7.6C225.97 7.6 225.347 7.866 224.857 8.398C224.381 8.93 224.143 9.672 224.143 10.624V16H221.455ZM238.641 12.892C238.137 12.892 237.668 12.836 237.234 12.724L236.457 13.501C236.695 13.627 237.017 13.732 237.423 13.816C237.829 13.9 238.487 13.984 239.397 14.068C240.783 14.194 241.791 14.523 242.421 15.055C243.051 15.587 243.366 16.322 243.366 17.26C243.366 17.876 243.198 18.457 242.862 19.003C242.526 19.563 242.008 20.011 241.308 20.347C240.608 20.697 239.712 20.872 238.62 20.872C237.136 20.872 235.939 20.592 235.029 20.032C234.119 19.486 233.664 18.66 233.664 17.554C233.664 16.616 234.119 15.804 235.029 15.118C234.749 14.992 234.504 14.859 234.294 14.719C234.098 14.579 233.923 14.432 233.769 14.278V13.795L235.596 11.863C234.784 11.149 234.378 10.232 234.378 9.112C234.378 8.412 234.546 7.775 234.882 7.201C235.232 6.627 235.722 6.172 236.352 5.836C236.982 5.5 237.745 5.332 238.641 5.332C239.229 5.332 239.775 5.416 240.279 5.584H244.227V7.222L242.442 7.348C242.722 7.88 242.862 8.468 242.862 9.112C242.862 9.812 242.694 10.449 242.358 11.023C242.022 11.597 241.532 12.052 240.888 12.388C240.258 12.724 239.509 12.892 238.641 12.892ZM238.641 10.834C239.187 10.834 239.635 10.687 239.985 10.393C240.349 10.099 240.531 9.679 240.531 9.133C240.531 8.587 240.349 8.167 239.985 7.873C239.635 7.579 239.187 7.432 238.641 7.432C238.067 7.432 237.605 7.579 237.255 7.873C236.905 8.167 236.73 8.587 236.73 9.133C236.73 9.679 236.905 10.099 237.255 10.393C237.605 10.687 238.067 10.834 238.641 10.834ZM236.121 17.281C236.121 17.799 236.359 18.184 236.835 18.436C237.325 18.702 237.92 18.835 238.62 18.835C239.292 18.835 239.838 18.695 240.258 18.415C240.678 18.149 240.888 17.785 240.888 17.323C240.888 16.945 240.748 16.63 240.468 16.378C240.202 16.126 239.663 15.972 238.851 15.916C238.277 15.874 237.745 15.811 237.255 15.727C236.849 15.951 236.555 16.196 236.373 16.462C236.205 16.728 236.121 17.001 236.121 17.281Z" fill="#2057E3"/>
</svg>
